<svg xmlns="http://www.w3.org/2000/svg" xmlns:xlink="http://www.w3.org/1999/xlink" viewBox="192.72 208.23 637.92 608.28"><path fill="#319FE1" d="M372.31 208.232C413.704 208.232 427.342 224.655 463.643 238.158C475.992 242.751 494.324 248.148 507.536 249.595C538.979 253.037 567.788 244.755 596.399 232.355C605.716 228.818 614.704 222.337 623.71 218.55C717.657 179.041 824.473 261.088 830.348 357.997C831.824 382.346 827.444 405.556 823.519 428.965C810.829 502.686 791.486 575.105 765.728 645.336C750.655 685.825 707.991 794.198 670.078 811.231C657.779 816.757 643.009 816.77 630.524 811.842C611.126 804.185 595.941 785.645 593.013 764.91C592.188 759.067 592.42 752.95 592.284 747.053C592.131 740.421 591.663 733.886 590.964 727.29C588.136 700.626 584.385 673.282 573.573 648.503C566.538 632.379 553.059 608.741 535.659 602.38C529.899 600.274 524.218 601.016 518.752 603.605C511.143 607.207 505.213 613.421 500.214 620.052C478.183 649.275 471.275 693.165 468.154 728.674C467.637 734.559 467.127 740.466 466.876 746.368C466.431 756.809 466.756 766.853 463.158 776.865C458.245 790.534 447.48 804.397 434.162 810.661C420.543 817.067 405.737 816.824 391.845 811.708C387.463 810.095 382.92 807.966 379.283 804.993C368.642 796.297 350.294 768.604 344.413 755.549C343.393 753.284 342.032 749.568 343.334 747.156C343.953 746.01 345.464 745.093 346.662 744.671C349.386 743.711 351.718 745.075 353.481 747.072C356.563 750.56 358.423 755.762 360.668 759.844C367.745 772.713 379.037 791.847 392.242 798.684C401.202 803.323 413.478 804.554 423.074 801.372C436.508 796.917 446.426 785.671 451.088 772.521C455.517 760.029 454.115 746.435 455.104 733.413C457.776 698.236 463.716 661.332 479.987 629.642C487.677 614.664 501.229 595.796 518.148 590.533C527.617 587.587 536.844 589.038 545.523 593.543C586.988 618.409 600.022 685.575 603.876 730.123C604.938 742.397 603.785 762.137 607.959 772.87C612.655 784.891 621.924 794.561 633.736 799.762C643.371 803.95 654.282 804.102 664.03 800.183C675.373 795.596 680.236 788.493 687.018 778.762C707.448 749.451 723.344 717.264 737.03 684.334C769.203 605.837 793.311 524.271 808.981 440.896C812.864 420.41 818.773 385.716 818.436 365.248C818.077 348.178 814.485 331.332 807.851 315.6C792.172 277.972 762.891 247.608 725.233 231.716C696.316 219.513 660.086 216.135 630.922 229.007C619.16 234.198 608.115 241.371 595.461 246.556C544.693 267.354 502.115 267.88 451.607 246.578C436.825 240.343 423.158 233.168 408.726 226.815C381.64 215.068 350.029 220.82 323.746 231.983C270.604 254.553 231.527 311.731 232.32 369.804C232.608 390.882 238.102 419.553 242.405 440.283C247.194 464.266 252.649 488.112 258.764 511.793C260.395 518.061 265.847 532.612 263.319 538.159C262.752 539.403 261.698 540.361 260.334 540.634C258.975 540.907 256.522 540.641 255.442 539.735C247.69 533.239 226.007 420.618 223.178 403.999C221.888 396.424 220.67 388.674 220.159 381.004C217.21 336.688 232.512 295.409 261.67 262.234C289.783 230.082 329.667 210.615 372.31 208.232Z"/><path fill="#319FE1" d="M513.757 392.109C517.446 391.785 522.956 392.416 523.607 397.34C524.464 403.821 512.389 404.981 507.736 405.933C493.831 408.777 480.581 412.51 467.082 417.017C415.975 433.867 369.66 462.738 332.027 501.204C268.781 564.609 233.443 653.857 215.904 740.348C212.714 756.266 209.939 772.264 207.582 788.326C206.446 795.98 205.772 803.69 204.458 811.271C204.172 812.921 203.181 814.222 202.148 815.511C200.013 816.054 197.594 816.494 195.593 815.275C194.104 814.369 193.31 812.818 192.921 811.164C191.751 806.191 196.057 781.409 197.072 774.529C208.927 694.177 234.222 614.673 279.047 546.477C290.014 529.792 302.754 514.762 316.322 500.166C372.343 439.897 433.893 408.698 513.757 392.109Z"/><path fill="#319FE1" d="M549.261 436.631C553.207 436.069 557.504 438.346 557.305 442.343C556.995 448.547 547.227 449.84 542.801 450.703C537.911 451.657 533.688 452.725 529.157 453.848C517.609 456.685 506.195 460.04 494.948 463.904C446.241 480.207 402.561 508.795 368.126 546.905C320.195 599.163 291.233 666.323 274.814 734.591C271.133 749.76 268.109 765.08 265.751 780.51C264.292 790.676 263.118 801.928 261.269 812.072C261.024 813.418 259.236 814.944 258.176 815.877C255.496 816.118 249.995 815.907 249.961 812.108C249.865 801.232 251.769 788.84 253.451 777.984C262.128 721.969 278.789 666.185 304.98 615.819C322.257 582.905 343.274 554.169 369.308 527.811C419.963 476.528 479.427 450.22 549.261 436.631Z"/><path fill="#319FE1" d="M577.038 484.142C579.644 483.874 583.409 483.201 585.753 484.513C591.653 487.817 587.941 494.471 582.728 495.813C578.624 496.87 574.312 497.325 570.118 498.111C563.117 499.437 556.167 501.021 549.283 502.86C426.243 535.207 362.846 625.278 332.114 743.67C330.092 751.457 328.012 759.241 326.42 767.13C324.934 774.493 319.734 810.536 317.605 814.067C317.525 814.2 317.439 814.329 317.356 814.461C307.305 821.237 306.599 809.612 307.665 802.728C318.264 734.25 336.015 670.858 374.469 612.511C423.151 538.647 491.358 500.265 577.038 484.142Z"/><path fill="#319FE1" d="M614.528 358.435C618.958 358.594 620.244 360.438 622.097 364.48C628.023 377.406 639.768 389.939 652.31 396.54C669.278 404.574 655.789 411.5 646.17 417.083C636.088 422.934 628.95 432.431 623.635 442.679C621.669 446.47 621.036 449.026 616.971 451.073C609.386 449.235 609.583 443.052 605.624 437.116C599.586 428.062 591.884 421.312 582.996 415.138C578.199 411.805 569.987 409.959 571.064 402.933C573.354 399.265 587.19 392.687 593.357 386.707C597.302 382.914 600.876 378.755 604.032 374.284C607.762 368.887 609.888 361.566 614.528 358.435ZM589.32 404.631C602.552 413.382 606.514 419.609 616.547 430.445C622.921 419.746 632.143 410.485 643.179 404.612C635.753 400.994 627.52 392.76 622.251 386.42C621.125 385.066 616.957 379.832 615.942 379.276C610.63 385.842 606.251 391.034 599.764 396.684C596.323 399.681 592.413 401.999 589.32 404.631Z"/><path fill="#319FE1" d="M726.019 347.491C733.454 348.361 732.555 353.218 735.81 358.811C742.33 370.016 749.68 375.101 760.96 380.689C766.655 389.496 760.312 390.306 753.333 395.095C744.129 401.412 736.548 409.435 732.928 420.205C732.028 422.881 730.371 424.056 727.888 424.933C721.321 424.046 721.424 419.893 718.127 414.834C715.194 410.332 712.45 405.357 708.67 401.447C703.413 396.008 695.463 393.185 690.691 387.416C686.859 382.443 701.689 375.998 704.618 373.996C711.248 369.466 715.278 363.811 718.979 356.781C721.082 352.789 721.669 349.302 726.019 347.491ZM708.654 386.253C716.875 391.776 720.693 396.807 726.832 404.371C733.768 395.144 735.817 392.661 745.148 385.951L744.362 385.517C738.877 382.623 730.124 372.768 726.719 367.501C721.051 376.233 716.533 379.989 708.654 386.253Z"/><path fill="#319FE1" d="M532.113 306.465C541.171 306.386 541.372 321.043 547.756 324.736C559.976 331.805 571.149 335.83 551.546 345.377C542.943 349.567 541.587 361.905 535.579 365.588C527.644 365.328 528.195 359.853 525.019 354.231C520.949 346.425 510.962 343.512 505.791 337.75C501.721 333.216 512.503 327.877 515.318 326.824C524.777 323.286 525.68 310.411 532.113 306.465ZM524.787 335.998C526.523 337.656 532.677 344.388 533.951 344.95C537.4 341.455 539.01 339.206 542.897 336.067C540.571 334.053 538.363 332.266 536.254 330.004C535.183 328.856 534.338 327.379 533.429 326.475C530.554 330.275 528.09 332.636 524.787 335.998Z"/><path fill="#319FE1" d="M664.494 460.032C673.216 460.11 673.528 472.175 679.854 476.741C683.032 479.036 689.266 481.1 691.32 484.203C695.298 489.46 688.399 493.678 684.002 495.631C675.92 499.221 672.712 512.822 666.506 515.441C657.931 514.069 656.848 500.621 650.85 497.659C631.724 488.215 636.927 484.468 652.72 476.279C657.088 474.014 657.607 463.504 664.494 460.032ZM657.421 487.679C658.677 488.833 665.59 495.845 666.232 495.658C669.767 491.954 670.588 491.264 674.538 488.099L674.044 487.745C671.534 485.979 666.736 480.53 665.604 479.917C662.803 483.023 660.71 485.105 657.421 487.679Z"/><path fill="#319FE1" d="M642.522 274.525C642.779 274.506 644.368 274.385 644.77 274.424C651.194 274.944 653.251 288.488 658.5 290.975C682.825 302.498 662.982 305.095 654.151 315.722C651.776 318.58 651.092 324.597 646.196 327.216C636.669 325.992 637.944 317.561 631.579 311.606C628.301 308.538 626.097 307.478 622.178 305.565C620.134 304.567 619.132 303.039 618.593 300.887C619.534 293.703 629.761 293.333 634.337 287.115C637.955 282.199 637.907 278.494 642.522 274.525ZM644.551 308.037C646.888 305.073 648.487 303.443 651.128 300.909C648.34 298.245 646.813 296.325 644.386 293.528C642.214 296.058 639.994 298.547 637.728 300.993C640.071 303.29 642.265 305.737 644.551 308.037Z"/><path fill="#319FE1" d="M743.142 270.945C748.654 271.867 748.094 273.636 750.572 278.5C753.238 284.399 761.694 286.301 764.633 291.201C768.577 297.775 756.027 300.542 752.973 305.239C749.696 310.282 749.787 313.101 744.656 315.842C736.859 313.904 737.303 306.128 732.701 303.122C715.822 292.098 720.58 292.388 733.896 282.407C737.38 279.795 736.595 274.205 743.142 270.945ZM743.73 297.963C745.293 296.559 746.88 295.243 748.448 293.837C747.253 292.985 744.063 290.191 742.958 289.831C741.322 291.306 740.495 292.125 738.997 293.757C739.981 294.742 742.73 297.927 743.73 297.963Z"/></svg>