<svg xmlns="http://www.w3.org/2000/svg" xmlns:xlink="http://www.w3.org/1999/xlink" viewBox="317.64 122.67 389.56 779.24"><path fill="#319FE1" d="M512.095 122.671C527.245 123.049 531.778 135.335 537.899 146.593C541.405 153.04 544.889 159.376 548.029 166.021C559.733 168.948 586.639 172.573 595.205 179.38C598.637 182.108 601.276 185.92 601.736 190.36C602.102 193.89 600.983 197.577 599.242 200.619C593.373 210.873 578.533 222.818 570.53 232.566L570.139 233.05C570.039 235.14 570.161 236.986 570.261 239.067C618.437 258.248 655.872 283.847 682.604 329.477C708.962 373.984 713.615 428.444 699.073 477.798C676.233 555.313 609.636 640.797 539.439 680.897C547.267 693.281 573.836 714.187 574.854 727.02C575.132 730.52 573.948 733.786 571.635 736.407C561.66 747.715 535.674 750.026 521.532 750.576L521.481 844.798C521.473 860.668 521.641 876.578 521.245 892.436C521.089 898.712 517.903 900.802 512.102 901.916C501.243 898.946 504.043 888.735 504.07 879.338L504.102 850.494L503.983 750.651C486.031 749.173 426.14 744.4 458.724 711.276C461.263 708.695 463.998 706.126 466.495 703.513C473.328 696.308 479.85 688.814 486.043 681.051C419.801 642.256 365.493 574.324 334.909 504.641C293.648 410.635 328.227 305.362 418.456 255.654C430.339 249.108 442.389 244.366 454.918 239.21C455.027 238.33 455.377 235.557 455.063 234.902C448.173 220.916 431.096 211.826 424.445 197.854C421.145 190.571 426.586 178.985 433.787 176.533C447.463 171.874 462.37 170.478 476.346 166.285C480.62 159.274 484.501 151.911 488.476 144.732C494.726 133.444 497.651 124.381 512.095 122.671ZM468.861 277.29C476.86 273.476 484.731 269.401 492.462 265.069C498.201 261.9 507.428 255.902 513.733 255.684C516.425 256.539 518.927 257.75 521.443 259.018C533.12 264.904 545.11 270.312 556.411 276.91C555.578 267.983 554.989 259.613 553.835 250.64C552.954 243.793 551.635 234.654 551.758 228.006C553.89 223.645 557.817 220.578 560.798 217.031C566.93 209.736 578.227 199.681 583.609 192.293C575.307 189.995 566.814 188.651 558.446 186.756C551.914 185.128 544.786 184.354 538.66 181.494C536.467 180.47 534.253 177.367 533.115 175.266C527.006 163.99 521.14 152.534 514.884 141.35C514.326 140.352 513.281 139.904 512.207 139.672C506.08 148.666 501.163 158.612 495.96 168.158C493.819 172.086 491.385 178.007 487.865 180.833C482.605 185.056 450.973 189.745 442.127 192.504L442.513 193.059C448.634 201.712 461.214 212.192 468.317 220.512C470.098 222.598 472.74 225.179 473.289 228.191C474.627 242.424 468.968 263.303 468.861 277.29ZM504.247 669.112C505.338 670.904 506.854 673.365 506.437 675.498C502.783 694.195 480.4 713.341 468.534 726.182C488.628 736.165 531.316 735.207 552.771 727.955C554.326 727.43 555.875 726.886 557.418 726.324C546.618 716.162 532.44 700.759 524.179 688.737C513.036 672.049 517.745 670.451 533.863 663.762C539.445 661.445 546.007 656.544 551.233 653.319C567.152 642.459 578.836 630.584 592.33 617.11C632.762 576.738 667.303 526.24 683.248 470.891C695.925 426.889 690.915 379.119 668.39 339.129C653.241 312.233 627.866 287.821 600.968 272.611C592.294 267.706 582.177 263.202 573.084 258.782C573.595 264.296 575.397 278.081 573.568 282.53C562.681 309.005 528.279 281.643 512.523 274.347C500.033 280.497 486.903 289.122 474.296 293.504C460.179 298.41 448.318 285.645 450.794 271.845C451.149 269.862 452.511 259.977 452 259.076C406.235 277.194 368.28 309.647 348.708 355.639C305.967 456.073 372.219 560.986 444.011 628.113C459.402 642.504 476.198 656.912 495.763 665.196C498.511 666.341 501.715 667.663 504.247 669.112Z"/><path fill="#319FE1" d="M577.54 368.206C590.116 367.414 603.562 375.937 605.585 388.5C606.851 396.364 607.351 415.229 605.839 422.839C605.215 426.136 603.963 429.282 602.15 432.106C597.459 439.308 590.45 442.301 582.444 443.935C559.699 444.485 551.874 426.863 553.424 407.552C553.924 401.323 552.853 395.566 554.21 388.995C554.887 385.606 556.243 382.388 558.196 379.536C562.992 372.556 569.565 369.578 577.54 368.206ZM582.375 426.51C585.578 424.518 586.257 423.674 588.421 420.643C588.923 414.412 588.549 408.733 588.89 402.729C589.352 394.577 588.854 384.99 577.598 385.957C570.386 390.416 570.951 394.552 571.263 402.629C571.635 412.267 567.589 428.257 582.375 426.51Z"/><path fill="#319FE1" d="M444.543 368.2C450.164 368.061 455.684 369.712 460.306 372.915C472.556 381.462 471.52 392.159 471.859 405.076C472.368 424.449 470.423 440.158 447.233 443.758C440.931 443.737 435.292 442.616 430.042 438.882C424.472 434.883 420.757 428.799 419.743 422.017C418.452 413.734 418.953 396.704 420.201 388.173C421.919 376.435 433.544 369.708 444.543 368.2ZM446.655 426.871C453.729 423.934 454.207 421.925 454.21 414.251C454.212 406.925 454.605 399.471 454.35 392.138L453.836 391.309C451.147 386.907 449.914 386.468 445.121 385.635C440.75 386.561 437.447 388.374 437.049 393.5C436.63 398.898 437.113 404.535 436.874 409.959C436.875 419.036 435.626 425.931 446.655 426.871Z"/><path fill="#319FE1" d="M570.052 496.11C572.86 495.923 575.534 496.038 577.673 498.154C585.94 506.331 572.208 518.809 566.528 524.125C549.827 539.542 528.343 546.175 505.856 544.417C483.979 542.706 466.968 533.726 452.553 517.423C449.959 514.711 447.936 512.226 445.996 508.989C441.413 501.346 451.075 493.061 458.154 497.626C461.353 499.733 463.192 503.419 465.697 506.29C487.959 531.778 530.639 534.583 555.056 510.669C559.585 506.234 564.475 498.575 570.052 496.11Z"/><path fill="#319FE1" d="M513.036 672.999C518.378 674.2 517.878 678.173 514.084 679.826L513.391 680.175C508.067 678.328 508.512 675.658 513.036 672.999Z"/></svg>