<svg xmlns="http://www.w3.org/2000/svg" xmlns:xlink="http://www.w3.org/1999/xlink" viewBox="228.91 173.87 567.16 675.77"><path fill="#319FE1" d="M487.95 174.251C577.006 171.104 669.711 187.445 752.991 218.913C771.167 225.781 787.048 244.34 792.69 262.701C796.862 276.279 795.989 292.777 795.989 306.992L795.938 342.138C795.801 386.53 796.538 434.862 792.245 478.775C788.967 511.843 782.749 544.552 773.664 576.515C766.259 603.017 756.375 631.023 743.164 655.528C703.225 729.612 637.351 789.96 564.72 831.403C554.708 837.116 544.579 843.101 533.622 846.46C527.916 848.139 522.039 849.168 516.103 849.528C495.564 850.597 481.438 843.434 464.149 833.959C431.657 815.904 401.204 794.402 373.318 769.825C299.295 703.306 261.08 635.977 241.714 538.565C235.884 509.197 232.071 479.463 230.303 449.574C227.626 398.192 229.76 346.267 229.048 294.814C228.704 269.947 230.836 255.237 248.218 236.024C262.895 219.801 277.723 216.586 297.693 209.854C359.23 189.512 423.222 177.537 487.95 174.251ZM526.491 821.573C617.32 781.448 701.174 698.837 737.327 605.785C756.14 557.363 764.943 503.931 767.754 452.185C769.872 413.197 768.973 373.886 768.886 334.847C768.847 317.071 771.085 278.83 764.528 263.822C759.573 252.482 751.544 246.732 740.278 242.384C662.488 212.36 578.467 200.155 495.341 202.227C429.02 203.921 363.436 214.239 300.834 236.448C281.199 243.414 259.917 249.404 255.959 273.057C253.39 288.407 254.781 309.156 254.728 325.157C254.525 347.855 254.583 370.554 254.901 393.251C254.956 403.425 254.645 414.138 254.966 424.259C255.739 452.306 258.279 480.276 262.57 508.002C277.158 605.245 311.382 676.202 383.722 744.193C393.7 753.57 402.933 760.475 413.597 768.898C433.846 784.895 454.746 798.967 477.356 811.456C483.769 814.998 493.068 819.903 499.901 822.112C504.409 823.613 509.149 824.302 513.898 824.146C518.827 823.979 521.851 823.237 526.491 821.573Z"/><path fill="#319FE1" d="M511.957 233.245C513.352 235.921 516.725 252.493 517.626 256.366C521.723 273.423 525.491 290.557 528.928 307.759C532.945 327.352 535.833 352.41 544.698 370.12C557.021 394.74 580.024 401.853 604.691 408.229C627.908 414.23 651.82 419.929 675.259 425.362C683.801 427.371 693.082 428.995 701.434 431.454C689.48 435.348 672.669 438.116 660.085 441.161C641.745 445.6 623.863 449.579 605.691 454.897C594.05 457.796 583.949 459.437 573.114 464.894C540.777 481.18 539.327 508.457 532.458 540.017C528.069 559.941 523.464 579.816 518.641 599.64C516.766 607.292 514.635 618.141 512.3 625.389L512.08 626.063L511.641 626.329C510.263 622.755 508.727 614.129 507.641 609.854C503.421 593.452 499.614 576.946 496.224 560.353C491.766 539.022 487.75 505.444 476.356 487.671C469.989 477.74 461.394 470.061 450.951 464.604C436.66 457.137 419.03 453.73 403.441 449.88C376.83 443.501 350.144 437.439 323.389 431.694C331.535 429.3 344.217 426.978 352.891 424.961L404.159 412.539C421.166 408.446 438.844 405.421 453.909 396.457C465.695 389.508 475.239 379.322 481.409 367.109C488.746 352.24 492.793 323.122 496.262 305.585C501.214 280.551 505.687 258.186 511.957 233.245ZM427.853 431.097C433.597 432.39 442.984 434.414 448.334 436.291C467.499 443.013 486.122 456.178 497.078 473.474C505.752 487.168 509.228 499.778 512.294 515.371L512.566 514.393C514.309 508.009 514.762 502.116 516.959 495.158C523.838 473.977 538.218 456.038 557.396 444.717C568.503 438.207 583.11 433.607 595.827 431.114C588.911 429.046 580.217 427.206 573.8 424.923C552.52 417.278 534.769 402.117 523.889 382.294C519.623 374.444 517.046 367.214 515.184 358.536C514.699 356.272 513.299 349.156 512.65 347.325C511.322 350.213 510.412 354.346 509.762 357.457C503.761 386.143 482.627 411.441 455.533 422.577C446.431 426.318 436.985 427.756 427.853 431.097Z"/><path fill="#319FE1" d="M509.623 643.459C517.966 642.988 520.421 651.821 523.288 658.613C532.614 680.712 542.948 702.345 552.164 724.478C557.975 738.434 557.528 756.059 547.834 768.224C539.807 778.149 528.147 784.454 515.447 785.738C487.975 786.416 467.693 767.637 469.398 739.615C469.65 735.672 470.452 731.784 471.782 728.064C479.426 706.089 491.026 684.552 499.456 662.818C501.602 657.285 505.342 647.255 509.623 643.459ZM512.389 760.586C533.82 757.885 532.92 739.283 524.419 725.118C521.602 720.423 514.487 700.969 512.217 698.793C507.34 708.968 502.735 719.323 497.855 729.506C495.092 735.271 492.527 741.11 494.697 747.547C496.524 752.858 500.492 757.161 505.637 759.413C507.481 760.202 510.349 760.421 512.389 760.586Z"/></svg>