<svg xmlns="http://www.w3.org/2000/svg" xmlns:xlink="http://www.w3.org/1999/xlink" viewBox="163.36 152.74 698.37 718.75"><path fill="#319FE1" d="M346.858 153.207C391.252 149.562 422.569 168.147 461.497 183.71C478.598 190.628 496.862 194.215 515.309 194.277C546.767 194.23 571.496 181.426 599.371 168.777C673.223 135.266 751.827 157.141 806.053 216.687C823.748 236.347 837.6 259.151 846.89 283.916C869.137 342.651 864.543 395.76 845.211 454.52C840.03 470.787 833.926 486.745 826.928 502.316C821.194 514.986 814.798 527.345 807.766 539.343C804.115 545.614 800.497 551.94 796.636 558.082C792.903 564.019 785.449 572.497 783.678 579.119C781.892 585.798 782.19 610.621 781.801 618.881C780.554 645.388 778.286 672.156 774.155 698.384C766.862 744.698 749.165 817.891 712.964 850.554C697.784 864.251 676.421 872.479 655.895 871.4C633.574 870.228 613.716 859.489 598.874 843.045C587.801 828.407 586.075 824.068 579.173 807.009C570.365 785.236 564.699 751.006 546.899 735.286C536.818 726.382 522.627 720.911 509.147 722.062C461.994 726.089 457.446 779.095 443.393 814.179C439.212 824.809 433.359 834.701 426.054 843.482C412.216 859.712 392.455 869.725 371.184 871.287C342.875 873.435 311.085 856.126 296.183 831.865C249.934 756.567 244.704 663.864 241.55 577.852C241.574 578.498 216.693 537.545 214.64 533.824C188.14 485.81 169.135 433.558 163.844 378.75C156.532 269.228 233.094 161.049 346.858 153.207ZM425.245 808.621C439.429 772.965 444.824 725.993 484.396 708.82C501.418 701.266 520.764 700.881 538.073 707.753C602.544 733.866 578.122 822.781 636.049 847.179C650.866 853.558 667.61 853.787 682.596 847.817C697.1 841.897 707.83 831.323 715.714 817.977C739.252 778.136 749.4 733.246 756.191 687.94C759.004 669.768 761.003 651.479 762.182 633.129C762.73 623.108 763.308 612.902 763.749 602.844C764.086 595.149 763.892 579.664 765.16 572.915C766.22 567.27 777.773 552.985 781.372 546.966C785.495 540.073 789.824 532.973 793.789 525.846C818.2 481.976 842.571 417.886 843.3 367.216C843.515 339.459 838.15 311.942 827.523 286.299C807.814 239.051 773.971 202.388 726.014 182.961C708.042 175.681 685.355 170.539 665.962 171.718C640.036 172.813 616.139 181.981 592.72 192.4C582.829 196.8 572.899 201.557 562.647 205.089C549.288 209.705 535.364 212.487 521.256 213.357C503.752 214.314 474.958 210.121 458.819 203.181C404.534 179.837 363.811 158.983 303.548 181.465C277.214 191.361 253.579 207.314 234.552 228.035C198.376 267.424 177.513 327.346 182.958 380.82C188.014 430.474 208.535 486.257 233.868 529.176C237.841 535.943 241.961 542.623 246.226 549.21C250.464 555.727 257.248 565.239 260.452 572.215C261.384 574.244 261.079 586.001 261.204 589.26C261.65 601.044 261.812 612.876 262.534 624.649C265.655 675.533 272.03 727.156 290.032 775.151C297.763 795.763 307.522 819.951 323.821 835.359C336.399 847.25 352.154 852.975 369.485 852.162C385.33 851.402 400.206 844.308 410.77 832.473C417.047 825.5 421.957 817.409 425.245 808.621Z"/><path fill="#319FE1" d="M406.11 348.724C410.707 348.553 415.557 348.693 420.176 348.713C458.804 348.875 497.433 349.005 536.06 348.691C542.237 348.641 545.806 350.725 547.271 357.002C548.213 361.044 544.828 366.359 540.626 367.041C532.802 368.198 524.379 367.511 516.355 367.575L445.406 367.763C433.02 367.773 419.803 368.08 407.459 367.599C383.2 366.654 388.477 392.715 388.476 410.592L388.494 458.022L388.514 502.764C388.5 530.663 386.958 542.22 403.647 566.648C430.353 605.737 469.587 635.979 512.598 655.047C529.342 648.561 544.123 639.605 558.547 629.012C590.519 605.535 632.509 569.687 635.71 527.589C636.265 508.084 635.544 488.331 635.548 468.801C635.55 462.017 635.161 455.624 636.365 448.9C638.448 446.511 640.391 445 643.588 444.453C646.111 444.021 648.678 444.285 650.728 445.939C652.846 447.647 653.625 450.024 653.916 452.63C655.225 464.31 654.361 480.12 654.393 492.301C654.429 505.875 655.535 523.704 653.836 536.748C651.345 555.863 639.554 575.933 627.621 590.845C603.116 621.465 567.928 649.824 532.763 667.224C527.277 669.938 520.225 674.011 514.119 674.512C497.863 675.847 448.258 640.103 434.577 628.672C408.269 606.69 373.028 568.663 370.121 533.104C369.208 521.935 369.641 510.461 369.604 499.25L369.506 440.275L369.554 399.767C369.588 386.438 367.818 371.832 377.499 361.026C385.632 351.946 394.292 349.557 406.11 348.724Z"/><path fill="#319FE1" d="M632.431 291.089C632.781 291.045 633.132 291.006 633.483 290.971C641.05 290.25 648.182 292.121 654.127 297.078C666.032 307.004 662.393 323.468 663.262 338.035C670.903 337.969 680.015 337.426 687.347 338.013C707.313 339.614 716.827 365.26 703.616 380.03C692.209 392.783 678.219 388.268 663.755 389.407L663.016 389.469C660.801 408.17 667.288 428.226 641.351 434.035C632.668 434.956 625.566 433.162 619.193 426.824C609.099 416.782 611.247 402.236 611.504 389.141C599.406 388.992 582.426 391.784 572.713 383.605C561.408 374.084 560.586 356.57 570.308 345.548C579.73 334.866 597.878 338.113 610.937 337.732C612.363 317.667 606.496 298.165 632.431 291.089ZM686.54 369.894C695.159 363.426 690.281 356.532 681.648 356.518C674.308 356.506 665.349 356.269 658.106 356.817C655.585 356.82 653.995 356.633 651.565 356.534C646.905 354.818 644.553 351.768 644.231 346.708C643.534 335.744 644.627 324.421 643.969 313.45C623.701 294.993 631.981 342.033 629.526 350.006C628.437 353.538 627.366 354.322 624.498 356.429L623.758 356.487C612.067 357.343 598.784 355.484 586.972 356.919C581.689 357.73 580.443 366.447 584.382 368.64C588.864 371.136 602.71 370.539 607.647 370.343C630.393 369.438 630.935 372.509 630.175 394.06C629.997 399.118 628.895 411.07 633.203 414.599C636.932 417.865 641.411 414.34 643.635 411.358C644.275 403.354 642.383 374.569 647.16 372.225C653.274 369.225 677.522 371.025 686.54 369.894Z"/><path fill="#319FE1" d="M651.565 356.534C653.995 356.633 655.585 356.82 658.106 356.817C659.396 357.901 661.306 361.165 660.791 362.167C658.956 365.742 648.035 371.838 647.372 364.005C647.007 359.69 647.433 358.33 651.565 356.534ZM655.246 363.752C658.976 362.082 657.327 362.849 657.772 359.499C658.19 356.354 653.633 357.619 651.823 357.772C647.884 362.921 647.272 366.059 655.246 363.752Z"/><path fill="#319FE1" d="M651.823 357.772C653.633 357.619 658.19 356.354 657.772 359.499C657.327 362.849 658.976 362.082 655.246 363.752C647.272 366.059 647.884 362.921 651.823 357.772Z"/></svg>